<svg xmlns="http://www.w3.org/2000/svg" xmlns:xlink="http://www.w3.org/1999/xlink" version="1.1" x="0px" y="0px" viewBox="0 0 100 125" enable-background="new 0 0 100 100" xml:space="preserve"><g><path d="M47.707,56.818c-1.229,1.357-2.155,2.887-2.711,4.568c-1.014,3.066,0.495,5.133,4.017,5.561   c0.328,0.041,0.663,0.035,0.996,0.053c0-0.008,0-0.016,0-0.023c0.199,0,0.4,0.012,0.599,0c3.626-0.219,5.375-2.434,4.354-5.564   c-0.55-1.684-1.478-3.211-2.7-4.572C50.861,55.283,49.107,55.273,47.707,56.818z"/><path d="M62.819,53.729c4.897,0,8.867-3.969,8.867-8.868c0-1.822-0.551-3.515-1.493-4.924c-1.84,4.076-14.572,6.415-16.218,5.537   C54.29,50.085,58.129,53.729,62.819,53.729z"/><path d="M79.242,33.253c-2.547-10.498-10.628-19.207-20.896-21.801l-3.676,6.213h4.701L54.67,25.61h4.701l-7.557,12.769   c7.356-0.349,14.71-2.776,22.031-7.293c0,0,8.885,14.859-2.777,30.698c-2.56-2.199-8.045-6.055-11.104-2.697   c-3.154,3.461,3.755,6.883,6.155,7.924c2.009,0.872,4.263,3.328,4.612,5.884c0.317,2.327-1.117,4.735-2.418,6.103   c-4.307,4.529-12.524,7.217-18.346,7.217s-14.039-2.688-18.346-7.217c-1.252-1.316-2.701-3.599-2.449-5.844   c0.296-2.646,2.566-5.241,4.644-6.143c2.4-1.041,9.31-4.463,6.156-7.924c-3.061-3.357-8.546,0.498-11.105,2.697   C17.205,45.945,26.09,31.085,26.09,31.085c7.321,4.517,14.675,6.945,22.031,7.293L40.564,25.61h4.701l-4.701-7.945h4.701   l-3.563-6.022c-4.095,0.988-7.941,2.8-11.336,5.603c-5.692,4.701-9.058,11.702-10.246,18.904   c-1.412,8.549,0.191,17.506,2.106,25.858c1.754,7.65,4.358,15.156,9.526,21.213c5.742,6.729,13.078,9.395,21.707,8.387   c4.746-0.553,8.928-2.662,12.452-5.973c6.608-6.207,9.855-14.727,11.808-23.395C79.847,52.793,81.564,42.821,79.242,33.253z"/><path d="M29.743,39.937c-0.942,1.409-1.493,3.102-1.493,4.924c0,4.898,3.97,8.868,8.867,8.868c4.69,0,8.529-3.643,8.844-8.254   C44.315,46.352,31.583,44.013,29.743,39.937z"/><ellipse cx="49.969" cy="76.291" rx="10.812" ry="6"/></g><text x="0" y="115" fill="#000000" font-size="5px" font-weight="bold" font-family="'Helvetica Neue', Helvetica, Arial-Unicode, Arial, Sans-serif">Created by Anthony Bossard</text><text x="0" y="120" fill="#000000" font-size="5px" font-weight="bold" font-family="'Helvetica Neue', Helvetica, Arial-Unicode, Arial, Sans-serif">from the Noun Project</text></svg>