<?xml version="1.0" encoding="utf-8"?>
<!-- Designed by Vexels.com - 2019 All Rights Reserved - https://vexels.com/terms-and-conditions/  -->
<svg version="1.1" id="Layer_1" xmlns="http://www.w3.org/2000/svg" xmlns:xlink="http://www.w3.org/1999/xlink" x="0px" y="0px"
	 viewBox="0 0 1200 1200" enable-background="new 0 0 1200 1200" xml:space="preserve">
<g>
	<path fill="#8ADFF9" d="M915.671,186.772c-7.022-7.508-14.307-14.763-21.845-21.753c-32.935-30.547-70.659-55.994-111.902-75.136
		C727.151,64.461,666.159,50.185,601.839,50.01c-0.601-0.002-1.2-0.011-1.801-0.01c-65.959,0.091-128.316,14.846-184.053,41.148
		c-0.547,0.258-1.085,0.529-1.631,0.789c0.117-0.263,0.221-0.528,0.343-0.789c-40.894,19.298-78.232,44.801-110.781,75.348
		c0.165,0.25,0.34,0.497,0.507,0.746c-6.969,6.573-13.72,13.372-20.236,20.395c-0.465,0.501-0.915,1.016-1.378,1.52
		c0.033-0.506,0.052-1.014,0.09-1.52c-71.323,76.873-114.822,179.958-114.822,293.641c0,51.149,8.909,100.214,25.256,145.735
		c12.795,35.63,24.319,71.673,34.755,108.035c0.36-0.236,0.726-0.456,1.087-0.69c0.066,0.23,0.135,0.46,0.201,0.69
		c6.37,22.196,12.324,44.513,17.912,66.928c-0.252,0.679-0.529,1.351-0.774,2.032c2.563,10.329,5.058,20.676,7.467,31.045
		c5.294,22.785,12.106,44.807,20.294,65.903c0.229-0.512,0.478-1.016,0.711-1.526c0.195,0.507,0.38,1.02,0.577,1.526
		c26.855,69.185,68.535,128.364,120.116,171.662c-0.144-1.698-0.266-3.402-0.369-5.112c7.449,8.64,15.535,16.472,24.155,23.45
		c2.112,1.49,4.237,2.954,6.376,4.393c8.516,5.73,17.246,11.052,26.173,15.949c-0.27,0.145-0.543,0.284-0.814,0.427
		c5.025,2.605,10.158,4.958,15.371,7.092c23.255,11.284,47.712,19.733,73.087,24.962c19.821,4.085,40.196,6.22,60.986,6.22
		c0.399,0,0.796-0.013,1.195-0.014c19.035-0.076,37.717-1.944,55.944-5.454c31.173-6.005,61.002-16.833,88.943-31.843
		c-0.119-0.061-0.237-0.125-0.356-0.187c10.347-5.183,20.319-11.192,29.809-17.998c0.228-0.035,0.458-0.062,0.686-0.098
		c13.487-9.172,26.424-19.374,38.752-30.499c45.432-40.997,82.506-94.657,107.595-156.636c9.306-22.99,16.973-47.118,22.796-72.172
		c1.724-7.415,3.482-14.821,5.267-22.222c6.064-25.143,12.515-50.192,19.516-75.077c10.134-36.021,21.422-71.698,34.422-106.804
		c17.27-46.637,26.707-97.074,26.707-149.717C1031.922,367.404,987.766,263.858,915.671,186.772z M510.036,649.324
		c-0.168,0.108-0.354,0.194-0.525,0.299l-0.763-0.299c-1.808,1.162-3.777,2.152-5.871,2.949l0.365,0.328
		c-3.529,1.226-7.386,1.914-11.437,1.914h-43.292c-89.576,0-162.366-60.782-163.943-136.267c-0.015-0.724-0.028-1.448-0.033-2.174
		l1.525,0.384l-0.382-0.42l1.67,0.42l61.452,15.469c21.651,5.45,43.876,9.039,66.334,11.089
		c52.33,4.776,93.493,24.394,104.122,64.444c-0.06,1.454-0.132,2.918-0.246,4.417c1.083,5.36,1.677,11.044,1.677,17.105v0
		c0,6.748-3.099,12.88-8.151,17.445c-0.132,0.467-0.275,0.943-0.411,1.412C511.456,648.359,510.762,648.857,510.036,649.324z
		 M601.839,1065.144c-0.399,0.001-0.795,0.007-1.195,0.007c-86.31,0-156.278-31.979-156.278-71.428
		c0-39.449,69.968-71.429,156.278-71.429c0.4,0,0.797,0.006,1.195,0.007c85.758,0.294,155.082,32.156,155.082,71.422
		S687.598,1064.85,601.839,1065.144z M918.803,527.262c-6.73,71.409-77.335,127.584-163.45,127.584h-43.291
		c-5.588,0-10.817-1.29-15.305-3.531c-1.376-0.687-2.686-1.46-3.911-2.317c-1.963-1.373-3.711-2.956-5.21-4.702
		c-3.611-4.209-5.747-9.383-5.747-14.983v0c0-3.572,0.206-7.013,0.588-10.34c5.474-47.64,49.259-70.424,106.254-75.626
		c22.458-2.05,44.683-5.639,66.333-11.089l54.368-13.686l4.339-1.092l2.901-0.73l2.662-0.67
		C919.334,519.844,919.15,523.573,918.803,527.262z"/>
	<path fill="#6FAED8" d="M914.383,186.772c0.257,3.054,0.392,6.126,0.392,9.217c0,101.659-140.511,184.127-314.224,184.72v239.221
		c64.893,2.037,117.19,108.839,117.19,176.566c0,25.724-7.546,49.614-20.46,69.412c67.543,33.418,114.57,102.013,117.138,181.85
		c55.555-84.37,34.978-198.282-47.863-257.64c31.495,3.315,62.589,14.587,90.175,34.349c30.268,21.684,52.22,50.654,65.193,82.803
		c9.306-22.99,16.973-47.118,22.796-72.172c1.724-7.415,3.482-14.821,5.267-22.222c-13.687-43.785-41.195-83.649-81.357-112.427
		c35.134,3.697,69.824,15.982,100.873,37.349c10.134-36.021,21.422-71.698,34.422-106.804
		c17.27-46.637,26.707-97.074,26.707-149.717C1030.634,367.404,986.478,263.858,914.383,186.772z M692.971,653.558l2.497-2.243
		c-1.376-0.687-2.686-1.46-3.911-2.317l-3.478,1.363c-0.617-2.055-1.189-4.072-1.732-6.066c-3.611-4.209-5.747-9.383-5.747-14.983v0
		c0-3.572,0.206-7.013,0.588-10.34c-15.283-120.257,134.538-103.968,233.544-103.968l-0.243,0.267l0.514-0.267
		c0.133,0.586,0.253,1.162,0.381,1.744l2.662-0.67c0,3.765-0.184,7.493-0.531,11.183
		C952.963,719.729,752.784,718.416,692.971,653.558z"/>
	<g>
		<path fill="#E26060" d="M598.67,380.722c0.629,0,1.253-0.012,1.881-0.014c173.713-0.593,314.224-83.062,314.224-184.72
			c0-3.091-0.136-6.163-0.392-9.217c-7.022-7.508-14.307-14.763-21.845-21.753c-44.551,69.171-158.323,118.518-291.987,119.201
			c-0.935,0.005-1.868,0.016-2.805,0.016c-133.921,0-248.299-48.861-293.83-117.738c-7.248,6.802-14.256,13.854-21.016,21.14
			c-0.211,2.769-0.336,5.551-0.336,8.351C282.565,298.014,424.09,380.722,598.67,380.722z"/>
		<path fill="#E26060" d="M324.884,700.449c-33.603,3.536-66.802,14.923-96.796,34.6c6.563,22.867,12.692,45.861,18.425,68.96
			C261.018,763.726,287.451,727.271,324.884,700.449z"/>
		<path fill="#E26060" d="M505.741,654.846l-2.864-2.573c-3.773,1.436-7.954,2.242-12.361,2.242h-43.292
			c-89.576,0-162.366-60.782-163.943-136.267C238.688,721.044,444.88,720.841,505.741,654.846z"/>
		<path fill="#E26060" d="M688.079,650.361l3.478-1.363c-1.963-1.373-3.711-2.956-5.21-4.702
			C686.89,646.289,687.462,648.306,688.079,650.361z"/>
		<path fill="#E26060" d="M512.538,646.427c-1.165,1.052-2.431,2.023-3.79,2.896l2.646,1.037
			C511.792,649.036,512.172,647.727,512.538,646.427z"/>
		<path fill="#E26060" d="M284.741,515.005l1.321,1.453l61.452,15.469c21.651,5.45,43.876,9.039,66.334,11.089
			c54.221,4.949,96.465,25.824,105.164,68.861C527.565,499.361,381.755,515.005,284.741,515.005z"/>
		<path fill="#E26060" d="M597.976,204.644c0.862,0,1.717-0.01,2.576-0.016c102.651-0.681,185.444-41.922,185.444-92.706
			c0-7.595-1.866-14.975-5.359-22.04C725.863,64.461,664.871,50.185,600.551,50.01c-0.601-0.002-1.2-0.011-1.801-0.01
			c-65.959,0.091-128.316,14.846-184.053,41.148c-3.1,6.679-4.741,13.632-4.741,20.774
			C409.956,163.131,494.135,204.644,597.976,204.644z"/>
		<path fill="#E26060" d="M856.731,824.466c-27.586-19.762-58.679-31.035-90.175-34.349c82.841,59.358,103.418,173.27,47.863,257.64
			c-2.568-79.837-49.595-148.432-117.138-181.85c12.913-19.797,20.46-43.688,20.46-69.412c0-67.727-52.297-174.528-117.19-176.566
			c-0.627-0.02-1.253-0.048-1.881-0.048c-65.761,0-119.072,108.233-119.072,176.614c0,27.554,8.661,53.002,23.299,73.571
			c-65.13,35.78-109.278,105.019-109.278,184.577c0,4.321,0.146,8.607,0.403,12.864c-3.712-4.305-7.279-8.794-10.654-13.505
			c-60.828-84.909-41.311-203.051,43.59-263.885c-31.496,3.315-62.589,14.587-90.174,34.349
			c-28.274,20.255-49.286,46.869-62.508,76.491c26.855,69.185,68.535,128.364,120.116,171.662
			c7.713,6.474,15.646,12.594,23.786,18.338c1.799,1.457,3.617,2.883,5.461,4.266c8.349,6.263,17.143,11.769,26.274,16.503
			c5.025,2.605,10.158,4.958,15.371,7.092c23.255,11.284,47.712,19.733,73.087,24.962c19.821,4.085,40.196,6.22,60.986,6.22
			c0.399,0,0.796-0.013,1.195-0.014c19.035-0.076,37.717-1.944,55.944-5.454c31.173-6.005,61.002-16.833,88.943-31.843
			c-0.119-0.061-0.237-0.125-0.356-0.187c10.347-5.183,20.319-11.192,29.809-17.998c0.228-0.035,0.458-0.062,0.686-0.098
			c13.487-9.172,26.424-19.374,38.752-30.499c45.432-40.997,82.506-94.657,107.595-156.636
			C908.952,875.12,887,846.15,856.731,824.466z M490.951,754.874v-7.076h36.628c31.114,0,58.137,17.5,71.777,43.19
			c0.387-0.728,0.787-1.448,1.195-2.163c13.983-24.504,40.35-41.027,70.581-41.027h36.628v7.076c0,42.502-26.65,78.76-64.142,93.032
			c-10.999,4.187-22.921,6.5-35.39,6.5c-2.744,0-5.342-0.61-7.678-1.691c-0.406-0.188-0.806-0.385-1.195-0.601
			c-2.629,1.459-5.653,2.293-8.873,2.293c-11.178,0-21.913-1.87-31.942-5.268C519.246,835.825,490.951,798.666,490.951,754.874z
			 M600.551,1065.144c-0.399,0.001-0.795,0.007-1.195,0.007c-86.31,0-156.278-31.979-156.278-71.428
			c0-39.449,69.968-71.429,156.278-71.429c0.4,0,0.797,0.006,1.195,0.007c85.758,0.294,155.082,32.156,155.082,71.422
			S686.31,1064.85,600.551,1065.144z"/>
		<path fill="#E26060" d="M868.631,700.449c40.162,28.777,67.67,68.641,81.357,112.427c6.064-25.143,12.515-50.192,19.516-75.077
			C938.455,716.431,903.765,704.146,868.631,700.449z"/>
		<path fill="#E26060" d="M754.065,654.846h-43.291c-5.588,0-10.817-1.29-15.305-3.531l-2.497,2.243
			c59.813,64.858,259.992,66.171,224.543-126.296C910.785,598.671,840.18,654.846,754.065,654.846z"/>
		<path fill="#E26060" d="M914.733,515.005c-99.006,0-248.827-16.29-233.544,103.968c5.474-47.64,49.259-70.424,106.254-75.626
			c22.458-2.05,44.683-5.639,66.333-11.089l54.368-13.686l4.339-1.092l2.901-0.73c-0.128-0.583-0.248-1.158-0.381-1.744
			l-0.514,0.267L914.733,515.005z"/>
	</g>
	<path fill="#6FAED8" d="M600.551,204.628v79.591c133.664-0.683,247.436-50.029,291.987-119.201
		c-32.935-30.547-70.659-55.994-111.902-75.136c3.493,7.065,5.359,14.444,5.359,22.04
		C785.995,162.706,703.203,203.947,600.551,204.628z"/>
	<g>
		<path fill="#F58367" d="M303.917,166.497c-7.248,6.802-14.256,13.854-21.016,21.14c-0.211,2.769-0.336,5.551-0.336,8.351
			c0,102.026,141.525,184.734,316.106,184.734c0.629,0,1.253-0.012,1.881-0.014v-96.489c-0.935,0.005-1.868,0.016-2.805,0.016
			C463.826,284.235,349.448,235.374,303.917,166.497z"/>
		<path fill="#F58367" d="M324.884,700.449c-33.603,3.536-66.802,14.923-96.796,34.6c6.563,22.867,12.692,45.861,18.425,68.96
			C261.018,763.726,287.451,727.271,324.884,700.449z"/>
		<path fill="#F58367" d="M479.599,796.495c0,27.554,8.661,53.002,23.299,73.571c-65.13,35.78-109.278,105.019-109.278,184.577
			c0,4.321,0.146,8.607,0.403,12.864c-3.712-4.305-7.279-8.794-10.654-13.505c-60.828-84.909-41.311-203.051,43.59-263.885
			c-31.496,3.315-62.589,14.587-90.174,34.349c-28.274,20.255-49.286,46.869-62.508,76.491
			c26.855,69.185,68.535,128.364,120.116,171.662c7.713,6.474,15.646,12.594,23.786,18.338c1.799,1.457,3.617,2.883,5.461,4.266
			c8.349,6.263,17.143,11.769,26.274,16.503c5.025,2.605,10.158,4.958,15.371,7.092c23.255,11.284,47.712,19.733,73.087,24.962
			c19.821,4.085,40.196,6.22,60.986,6.22c0.399,0,0.796-0.013,1.195-0.014v-84.841c-0.399,0.001-0.795,0.007-1.195,0.007
			c-86.31,0-156.278-31.979-156.278-71.428c0-39.449,69.968-71.429,156.278-71.429c0.4,0,0.797,0.006,1.195,0.007v-2.022v-67.564
			c-0.406-0.188-0.806-0.385-1.195-0.601c-2.629,1.459-5.653,2.293-8.873,2.293c-11.178,0-21.913-1.87-31.942-5.268
			c-39.295-13.313-67.59-50.471-67.59-94.263v-7.076h36.628c31.114,0,58.137,17.5,71.777,43.19c0.387-0.728,0.787-1.448,1.195-2.163
			V619.929c-0.627-0.02-1.253-0.048-1.881-0.048C532.909,619.881,479.599,728.114,479.599,796.495z"/>
		<path fill="#F58367" d="M505.741,654.846l-2.864-2.573c-3.773,1.436-7.954,2.242-12.361,2.242h-43.292
			c-89.576,0-162.366-60.782-163.943-136.267C238.688,721.044,444.88,720.841,505.741,654.846z"/>
		<path fill="#F58367" d="M915.003,515.005l-0.514,0.267l-6.345,3.3l4.339-1.092l2.901-0.73
			C915.256,516.166,915.137,515.591,915.003,515.005z"/>
		<path fill="#F58367" d="M686.348,644.295c0.543,1.994,1.114,4.011,1.732,6.066l3.478-1.363
			C689.595,647.624,687.847,646.042,686.348,644.295z"/>
		<path fill="#F58367" d="M512.538,646.427c-1.165,1.052-2.431,2.023-3.79,2.896l2.646,1.037
			C511.792,649.036,512.172,647.727,512.538,646.427z"/>
		<path fill="#F58367" d="M284.741,515.005l1.321,1.453l61.452,15.469c21.651,5.45,43.876,9.039,66.334,11.089
			c54.221,4.949,96.465,25.824,105.164,68.861C527.565,499.361,381.755,515.005,284.741,515.005z"/>
		<path fill="#F58367" d="M414.698,91.148c-3.1,6.679-4.741,13.632-4.741,20.774c0,51.209,84.179,92.722,188.019,92.722
			c0.862,0,1.717-0.01,2.576-0.016V50.01c-0.601-0.002-1.2-0.011-1.801-0.01C532.792,50.091,470.435,64.846,414.698,91.148z"/>
	</g>
	<g>
		<path fill="#E26060" d="M914.776,195.988c0-3.091-0.136-6.163-0.392-9.217c-7.022-7.508-14.307-14.763-21.845-21.753
			c-44.551,69.171-158.323,118.518-291.987,119.201v96.489C774.264,380.116,914.776,297.647,914.776,195.988z"/>
		<path fill="#E26060" d="M856.731,824.466c-27.586-19.762-58.679-31.035-90.175-34.349c82.841,59.358,103.418,173.27,47.863,257.64
			c-2.568-79.837-49.595-148.432-117.138-181.85c12.913-19.797,20.46-43.688,20.46-69.412c0-67.727-52.297-174.528-117.19-176.566
			v168.895c13.983-24.504,40.35-41.027,70.581-41.027h36.628v7.076c0,42.502-26.65,78.76-64.142,93.032
			c-10.999,4.187-22.921,6.5-35.39,6.5c-2.744,0-5.342-0.61-7.678-1.691v67.564v2.022c85.758,0.294,155.082,32.156,155.082,71.422
			s-69.324,71.127-155.082,71.422v84.841c19.035-0.076,37.717-1.944,55.944-5.454c31.173-6.005,61.002-16.833,88.943-31.843
			c-0.119-0.061-0.237-0.125-0.356-0.187c10.347-5.183,20.319-11.192,29.809-17.998c0.228-0.035,0.458-0.062,0.686-0.098
			c13.487-9.172,26.424-19.374,38.752-30.499c45.432-40.997,82.506-94.657,107.595-156.636
			C908.952,875.12,887,846.15,856.731,824.466z"/>
		<path fill="#E26060" d="M868.631,700.449c40.162,28.777,67.67,68.641,81.357,112.427c6.064-25.143,12.515-50.192,19.516-75.077
			C938.455,716.431,903.765,704.146,868.631,700.449z"/>
		<path fill="#E26060" d="M754.065,654.846h-43.291c-5.588,0-10.817-1.29-15.305-3.531l-2.497,2.243
			c59.813,64.858,259.992,66.171,224.543-126.296C910.785,598.671,840.18,654.846,754.065,654.846z"/>
		<path fill="#E26060" d="M787.443,543.347c22.458-2.05,44.683-5.639,66.333-11.089l54.368-13.686l6.345-3.3l0.243-0.267
			c-99.006,0-248.827-16.29-233.544,103.968C686.663,571.332,730.448,548.549,787.443,543.347z"/>
		<path fill="#E26060" d="M785.995,111.922c0-7.595-1.866-14.975-5.359-22.04C725.863,64.461,664.871,50.185,600.551,50.01v154.618
			C703.203,203.947,785.995,162.706,785.995,111.922z"/>
	</g>
</g>
</svg>
