<?xml version="1.0" encoding="utf-8"?>
<!-- Designed by Vexels.com - 2019 All Rights Reserved - https://vexels.com/terms-and-conditions/  -->
<svg version="1.1" id="Layer_1" xmlns="http://www.w3.org/2000/svg" xmlns:xlink="http://www.w3.org/1999/xlink" x="0px" y="0px"
	 viewBox="0 0 1200 1200" enable-background="new 0 0 1200 1200" xml:space="preserve">
<g>
	<path fill="#FBC82F" d="M951.307,231.06c-9.133-12.8-18.966-25.063-29.411-36.77c-24.315-27.253-52.026-51.405-82.489-71.774
		c-15.346-10.261-31.393-19.55-48.044-27.809c-57.58-28.559-122.436-44.654-191.056-44.702c-0.305,0-0.608-0.006-0.912-0.005
		c-68.728,0.094-133.552,16.102-191.049,44.51c-16.656,8.23-32.699,17.494-48.039,27.726
		c-30.482,20.331-58.192,44.448-82.486,71.691c-10.429,11.695-20.24,23.954-29.355,36.749
		c-50.246,70.532-79.744,156.978-79.743,250.603c0,51.149,8.909,100.214,25.256,145.735
		c24.438,68.055,44.282,137.607,60.647,208.041c21.473,92.417,67.907,172.291,129.998,228.485
		C444.592,1117.814,519.166,1150,600,1150c0.102,0,0.204-0.004,0.307-0.004c80.716-0.081,155.177-32.251,215.071-86.456
		c62.081-56.185,108.511-136.044,129.988-228.443c16.054-69.069,34.581-137.606,59.205-204.103
		c17.27-46.637,26.707-97.074,26.707-149.717C1031.278,387.989,1001.654,301.621,951.307,231.06z M627.705,777.743
		c20.936,3.829,38.973,11.215,51.527,17.492c4.32,2.16,6.829,5.328,7.587,8.668c0.156,0.69,0.246,1.384,0.253,2.081
		c0.003,0.021,0.005,0.043,0.008,0.064c0.004,0.035-0.001,0.069,0.002,0.103c-0.003,0.315-0.041,0.629-0.075,0.943
		c-0.409,3.737-2.983,7.37-7.774,9.766c-17.767,8.884-46.494,20.018-78.925,20.088c-0.103,0-0.204,0.006-0.307,0.006
		c-32.558,0-61.408-11.182-79.232-20.094c-5.238-2.619-7.857-6.715-7.858-10.811c0-0.014,0.003-0.029,0.003-0.044
		c0.009-2.007,0.649-4.012,1.916-5.843c1.31-1.893,3.285-3.601,5.939-4.928c12.553-6.277,30.59-13.663,51.527-17.492
		c8.789-1.608,18.078-2.602,27.705-2.602c0.103,0,0.204,0.004,0.307,0.004C609.823,775.166,619.009,776.153,627.705,777.743z
		 M282.328,532.39c0-9.246,7.495-16.741,16.741-16.741h126.874c52.053,0,94.25,42.197,94.25,94.25v27.512
		c0,9.428-7.643,17.071-17.071,17.071h-70.182h-41.918c-2.74,0-5.447-0.135-8.136-0.335c-7.513-0.557-14.809-1.873-21.82-3.88
		c-13.869-3.97-26.597-10.617-37.598-19.359c-25.056-19.912-41.141-50.629-41.141-85.12V532.39z M600.307,1065.15
		c-0.102,0-0.204,0.002-0.307,0.002c-86.31,0-156.278-31.98-156.278-71.429c0-39.449,69.968-71.429,156.278-71.429
		c0.102,0,0.204,0.002,0.307,0.002c86.168,0.076,155.971,32.025,155.971,71.427S686.475,1065.074,600.307,1065.15z M916.837,545.787
		c0,34.492-16.084,65.208-41.141,85.12c-10.389,8.256-22.304,14.672-35.28,18.701c-7.028,2.183-14.366,3.656-21.925,4.37
		c-3.408,0.322-6.857,0.503-10.349,0.503h-39.795h-72.304c-9.428,0-17.071-7.643-17.071-17.071v-27.512
		c0-52.053,42.197-94.25,94.25-94.25h126.874c9.246,0,16.741,7.495,16.741,16.741V545.787z"/>
	<g>
		<path fill="#FC5D4C" d="M684.615,789.031c-12.806-74.152-52.769-152.972-83.857-152.972c-0.149,0-0.301,0.021-0.451,0.028
			c-26.698,1.196-66.321,108.317-81.339,151.863c-93.133,27.403-159.787,100.686-159.787,186.801
			c0,31.922,9.172,62.075,25.442,88.789C444.592,1117.814,519.166,1150,600,1150c0.102,0,0.204-0.004,0.307-0.004
			c80.716-0.081,155.177-32.251,215.071-86.456c16.27-26.714,25.442-56.867,25.442-88.789
			C840.82,889.744,775.87,817.241,684.615,789.031z M512.914,806.006c0.009-2.007,0.649-4.012,1.916-5.843
			c1.31-1.893,3.285-3.601,5.939-4.928c12.553-6.277,30.59-13.663,51.527-17.492c8.789-1.608,18.078-2.602,27.705-2.602
			c0.103,0,0.204,0.004,0.307,0.004c9.517,0.021,18.703,1.008,27.398,2.598c20.936,3.829,38.973,11.215,51.527,17.492
			c4.32,2.16,6.829,5.328,7.587,8.668c0.156,0.69,0.246,1.384,0.253,2.081c0.003,0.021,0.005,0.043,0.008,0.064
			c0.004,0.035-0.001,0.069,0.002,0.103c-0.003,0.315-0.041,0.629-0.075,0.943c-0.409,3.737-2.983,7.37-7.774,9.766
			c-17.767,8.884-46.494,20.018-78.925,20.088c-0.103,0-0.204,0.006-0.307,0.006c-32.558,0-61.408-11.182-79.232-20.094
			c-5.238-2.619-7.857-6.715-7.858-10.811C512.91,806.035,512.914,806.021,512.914,806.006z M600.307,1065.15
			c-0.102,0-0.204,0.002-0.307,0.002c-86.31,0-156.278-31.98-156.278-71.429c0-39.449,69.968-71.429,156.278-71.429
			c0.102,0,0.204,0.002,0.307,0.002c86.168,0.076,155.971,32.025,155.971,71.427S686.475,1065.074,600.307,1065.15z"/>
		<path fill="#FC5D4C" d="M965.022,409.991c-1.431-1.368-3.676,0.355-2.72,2.088c13.258,24.044,14.407,47.055,10.252,66.867H795.114
			c-68.767,0-124.513,55.746-124.513,124.513v34.595c0,9.428,7.643,17.071,17.071,17.071h80.624
			c-3.596,45.54,29.711,83.384,46.193,99.15c1.43,1.368,3.676-0.355,2.72-2.088c-20.771-37.668-11.83-72.804,0.683-97.062h20.954
			c-18.454,70.499,34.201,130.822,58.897,154.444c1.932,1.847,4.964-0.479,3.674-2.82c-47.479-86.1,19.977-162.419,31.245-174.247
			c35.948-21.565,62.688-56.894,72.945-98.703C1027.05,477.592,984.403,428.529,965.022,409.991z M916.837,545.787
			c0,34.492-16.084,65.208-41.141,85.12c-10.389,8.256-22.304,14.672-35.28,18.701c-7.028,2.183-14.366,3.656-21.925,4.37
			c-3.408,0.322-6.857,0.503-10.349,0.503h-39.795h-72.304c-9.428,0-17.071-7.643-17.071-17.071v-27.512
			c0-52.053,42.197-94.25,94.25-94.25h126.874c9.246,0,16.741,7.495,16.741,16.741V545.787z"/>
		<path fill="#FC5D4C" d="M600.307,220.094c93.056-0.082,177.411-37.282,239.1-97.578c-15.346-10.261-31.393-19.55-48.044-27.809
			c-54.562,36.823-120.29,58.359-191.056,58.421c-0.102,0-0.204,0.003-0.307,0.003c-71.009,0-136.957-21.624-191.655-58.621
			c-16.656,8.23-32.699,17.494-48.039,27.726c61.782,60.527,146.371,97.862,239.693,97.862
			C600.103,220.098,600.204,220.094,600.307,220.094z"/>
		<path fill="#FC5D4C" d="M600,431.288c0.102,0,0.204-0.003,0.307-0.003c149.358-0.11,279.924-80.443,351-200.225
			c-9.133-12.8-18.966-25.063-29.411-36.77c-74.649,95.593-190.924,157.094-321.589,157.19c-0.102,0-0.204,0.002-0.307,0.002
			c-130.956,0-247.483-61.68-322.18-157.556c-10.429,11.695-20.24,23.954-29.355,36.749
			C319.538,350.753,450.354,431.288,600,431.288z"/>
		<path fill="#FC5D4C" d="M362.441,655.125h20.954c12.513,24.258,21.455,59.394,0.683,97.062c-0.956,1.733,1.29,3.456,2.72,2.088
			c16.483-15.766,49.789-53.61,46.193-99.15h78.502c9.428,0,17.071-7.643,17.071-17.071v-34.595
			c0-68.767-55.746-124.513-124.513-124.513H227.445c-4.155-19.812-3.006-42.823,10.253-66.867c0.956-1.733-1.29-3.456-2.72-2.088
			c-18.527,17.721-58.307,63.337-43.046,116.422c9.138,46.799,38.743,86.268,79.121,108.714
			c16.118,17.885,73.608,90.398,28.818,171.622c-1.291,2.341,1.742,4.668,3.673,2.82
			C328.24,785.947,380.895,725.625,362.441,655.125z M323.469,630.907c-25.056-19.912-41.141-50.629-41.141-85.12V532.39
			c0-9.246,7.495-16.741,16.741-16.741h126.874c52.053,0,94.25,42.197,94.25,94.25v27.512c0,9.428-7.643,17.071-17.071,17.071
			h-70.182h-41.918c-2.74,0-5.447-0.135-8.136-0.335c-7.513-0.557-14.809-1.873-21.82-3.88
			C347.198,646.297,334.47,639.65,323.469,630.907z"/>
	</g>
	<g>
		<path fill="#F2B130" d="M600.307,50.005v103.124c70.766-0.062,136.494-21.598,191.056-58.421
			C733.782,66.149,668.926,50.053,600.307,50.005z"/>
		<path fill="#F2B130" d="M921.896,194.29c-24.315-27.253-52.026-51.405-82.489-71.774c-61.689,60.295-146.044,97.496-239.1,97.578
			V351.48C730.972,351.384,847.247,289.883,921.896,194.29z"/>
		<path fill="#F2B130" d="M951.307,231.06c-71.076,119.782-201.642,200.115-351,200.225v204.801c0.15-0.007,0.302-0.028,0.451-0.028
			c31.088,0,71.051,78.82,83.857,152.972c91.255,28.211,156.205,100.714,156.205,185.72c0,31.922-9.172,62.075-25.442,88.789
			c62.081-56.185,108.511-136.044,129.988-228.443c16.054-69.069,34.581-137.606,59.205-204.103
			c17.27-46.637,26.707-97.074,26.707-149.717C1031.278,387.989,1001.654,301.621,951.307,231.06z M932.662,632.502
			c-11.268,11.827-78.724,88.147-31.245,174.247c1.291,2.341-1.742,4.668-3.674,2.82c-24.696-23.622-77.351-83.945-58.897-154.444
			h-20.954c-12.514,24.258-21.455,59.394-0.683,97.062c0.956,1.733-1.29,3.456-2.72,2.088c-16.482-15.766-49.789-53.61-46.193-99.15
			h-80.624c-9.428,0-17.071-7.643-17.071-17.071v-34.595c0-68.767,55.746-124.513,124.513-124.513h177.441
			c4.155-19.812,3.006-42.823-10.252-66.867c-0.956-1.733,1.289-3.456,2.72-2.088c19.381,18.538,62.028,67.6,40.584,123.808
			C995.35,575.609,968.61,610.937,932.662,632.502z"/>
	</g>
	<g>
		<path fill="#E54141" d="M684.615,789.031c-12.806-74.152-52.769-152.972-83.857-152.972c-0.149,0-0.301,0.021-0.451,0.028v139.059
			c9.517,0.021,18.703,1.008,27.398,2.598c20.936,3.829,38.973,11.215,51.527,17.492c4.32,2.16,6.829,5.328,7.587,8.668
			c0.156,0.69,0.246,1.384,0.253,2.081c0.003,0.021,0.005,0.043,0.008,0.064c0.004,0.035-0.001,0.069,0.002,0.103
			c0.026,0.323,0,0.637-0.075,0.943c-0.409,3.737-2.983,7.37-7.774,9.766c-17.767,8.884-46.494,20.018-78.925,20.088v85.346
			c86.168,0.076,155.971,32.025,155.971,71.427s-69.803,71.351-155.971,71.427v84.847c80.716-0.081,155.177-32.251,215.071-86.456
			c16.27-26.714,25.442-56.867,25.442-88.789C840.82,889.744,775.87,817.241,684.615,789.031z"/>
		<path fill="#E54141" d="M791.362,94.708c-54.562,36.823-120.29,58.359-191.056,58.421v66.965
			c93.056-0.082,177.411-37.282,239.1-97.578C824.06,112.255,808.013,102.966,791.362,94.708z"/>
		<path fill="#E54141" d="M951.307,231.06c-9.133-12.8-18.966-25.063-29.411-36.77c-74.649,95.593-190.924,157.094-321.589,157.19
			v79.805C749.665,431.175,880.231,350.842,951.307,231.06z"/>
		<path fill="#E54141" d="M814.49,754.275c1.43,1.368,3.676-0.355,2.72-2.088c-20.771-37.668-11.83-72.804,0.683-97.062h-49.596
			C764.701,700.665,798.007,738.51,814.49,754.275z"/>
		<path fill="#E54141" d="M965.022,409.991c-1.431-1.368-3.676,0.355-2.72,2.088c13.258,24.044,14.407,47.055,10.252,66.867H795.114
			c-68.767,0-124.513,55.746-124.513,124.513v34.595c0,9.428,7.643,17.071,17.071,17.071h80.624
			c0.017-0.215,0.032-0.429,0.051-0.644h-72.304c-9.428,0-17.071-7.643-17.071-17.071v-27.512c0-52.053,42.197-94.25,94.25-94.25
			h126.874c9.246,0,16.741,7.495,16.741,16.741v13.397c0,34.492-16.084,65.208-41.141,85.12
			c-10.389,8.256-22.304,14.672-35.28,18.701c-0.578,1.846-1.09,3.684-1.57,5.517c-18.454,70.499,34.201,130.822,58.897,154.444
			c1.932,1.847,4.964-0.479,3.674-2.82c-47.479-86.1,19.977-162.419,31.245-174.247c35.948-21.565,62.688-56.894,72.945-98.703
			C1027.05,477.592,984.403,428.529,965.022,409.991z"/>
	</g>
</g>
</svg>
